<?xml version="1.0" encoding="iso-8859-1"?>
<!-- Uploaded to: SVG Repo, www.svgrepo.com, Generator: SVG Repo Mixer Tools -->
<svg height="800px" width="800px" version="1.1" id="Layer_1" xmlns="http://www.w3.org/2000/svg" xmlns:xlink="http://www.w3.org/1999/xlink" 
	 viewBox="0 0 512 512" xml:space="preserve">
<circle style="fill:#BDFBFD;" cx="256" cy="256" r="256"/>
<path style="fill:#00E4ED;" d="M510.386,284.72L305.114,79.448l-124.876,47.725l83.356,83.356L88.226,387.017l120.635,120.635
	c15.281,2.844,31.032,4.348,47.137,4.348C387.674,512,496.109,412.584,510.386,284.72z"/>
<path style="fill:#FF858C;" d="M256.619,424.517c-23.766,0-23.945-10.275-23.945-10.275c-31.628,15.01-52-3.753-52-3.753
	c-41.277,11.793-63.793-14.474-63.793-14.474c-38.062,1.072-33.237-25.195-33.237-25.195s111.773-127.317,127.855-154.122
	s6.97-44.763,1.608-56.287c-5.361-11.524-2.948-33.237-2.948-33.237h94.954c0,0,2.412,21.711-2.948,33.237
	c-5.361,11.526-14.474,29.484,1.608,56.287s127.853,154.122,127.853,154.122s4.825,26.267-33.237,25.195
	c0,0-22.516,26.267-63.793,14.474c0,0-20.371,18.763-52,3.753C282.598,414.242,280.385,424.517,256.619,424.517z"/>
<path style="fill:#FF6178;" d="M431.628,370.819c0,0-111.771-127.317-127.853-154.122s-6.97-44.763-1.608-56.287
	c5.361-11.526,2.948-33.237,2.948-33.237H256v297.336c0.209,0.002,0.405,0.009,0.619,0.009c23.766,0,25.979-10.275,25.979-10.275
	c31.628,15.01,52-3.753,52-3.753c41.277,11.793,63.793-14.474,63.793-14.474C436.452,397.088,431.628,370.819,431.628,370.819z"/>
<path style="fill:#FF0647;" d="M387.996,320.495c-10.419,6.468-28.484,13.215-53.4,6.097c0,0-20.371,18.763-52,3.753
	c0,0-2.214,10.275-25.979,10.275s-23.945-10.275-23.945-10.275c-31.628,15.01-52-3.753-52-3.753
	c-24.914,7.118-42.98,0.371-53.4-6.097c-23.993,27.957-43.63,50.324-43.63,50.324s-4.825,26.267,33.237,25.195
	c0,0,22.516,26.269,63.793,14.474c0,0,20.371,18.763,52,3.753c0,0,0.178,10.275,23.945,10.275c23.766,0,25.979-10.275,25.979-10.275
	c31.628,15.01,52-3.753,52-3.753c41.277,11.793,63.793-14.474,63.793-14.474c38.062,1.072,33.237-25.195,33.237-25.195
	S411.991,348.451,387.996,320.495z"/>
<path style="fill:#C60944;" d="M431.628,370.819c0,0-19.637-22.368-43.63-50.324c-10.419,6.468-28.484,13.215-53.4,6.097
	c0,0-20.371,18.763-52,3.753c0,0-2.214,10.275-25.979,10.275c-0.212,0-0.409-0.007-0.619-0.009v83.897
	c0.209,0.002,0.405,0.009,0.619,0.009c23.766,0,25.979-10.274,25.979-10.274c31.628,15.01,52-3.753,52-3.753
	c41.277,11.793,63.793-14.474,63.793-14.474C436.452,397.088,431.628,370.819,431.628,370.819z"/>
<polygon style="fill:#FF858C;" points="256,160.353 198.794,103.146 190.174,111.766 256,177.592 321.826,111.768 313.206,103.148 
	"/>
<polygon style="fill:#FF6178;" points="313.206,103.148 256,160.353 256,177.592 321.826,111.768 "/>
<polygon style="fill:#91BF66;" points="256,150.009 199.447,93.456 192.936,104.186 256,167.248 321.826,101.424 313.206,92.805 "/>
<polygon style="fill:#51A448;" points="313.206,92.805 256,150.009 256,167.248 321.826,101.424 "/>
<path style="fill:#F3D64E;" d="M302.87,89.348L256,136.218l-44.803-44.804c-2.794,2.967-5.403,6.073-8.32,8.919L256,153.457
	l55.322-55.322C307.924,95.923,305.133,92.782,302.87,89.348z"/>
<path style="fill:#EEBB46;" d="M302.87,89.348L256,136.218v17.239l55.32-55.32C307.924,95.923,305.133,92.782,302.87,89.348z"/>
<path style="fill:#EA326A;" d="M256.619,139.488c33.192,0,56.792-3.932,71.265-7.449c8.38-2.036,11.633-12.226,6.039-18.791
	l-28.808-33.801c0,0-22.226,6.97-48.495,6.97s-46.459-6.97-46.459-6.97l-28.958,33.978c-5.601,6.572-2.324,16.717,6.056,18.796
	C201.238,135.69,223.996,139.488,256.619,139.488z"/>
<path style="fill:#D1205B;" d="M333.922,113.25l-28.808-33.802c0,0-22.226,6.968-48.495,6.968c-0.207,0-0.412-0.003-0.619-0.005
	v53.072c0.209,0,0.409,0.003,0.619,0.003c33.192,0,56.792-3.932,71.265-7.449C336.263,130.003,339.516,119.813,333.922,113.25z"/>
<g>
	<polygon style="fill:#E2982B;" points="393.74,384.552 396.207,365.347 411.322,377.447 	"/>
	<polygon style="fill:#E2982B;" points="319.876,400.215 326.916,382.178 338.654,397.576 	"/>
	<polygon style="fill:#E2982B;" points="356.698,394.287 361.815,375.613 375.098,389.699 	"/>
	<polygon style="fill:#E2982B;" points="283.174,406.111 291.456,388.61 302.09,404.789 	"/>
</g>
<polygon style="fill:#EEBB46;" points="256,388.918 246.519,405.801 256,405.801 256,388.92 "/>
<polygon style="fill:#E2982B;" points="256,388.92 256,405.801 265.481,405.801 "/>
<g>
	<polygon style="fill:#EEBB46;" points="118.431,384.552 115.964,365.347 100.848,377.447 	"/>
	<polygon style="fill:#EEBB46;" points="192.295,400.215 185.254,382.178 173.516,397.576 	"/>
	<polygon style="fill:#EEBB46;" points="155.472,394.287 150.356,375.613 137.073,389.699 	"/>
	<polygon style="fill:#EEBB46;" points="228.997,406.111 220.715,388.61 210.08,404.789 	"/>
</g>
<g>
	<circle style="fill:#A0C17C;" cx="132.81" cy="369.985" r="5.818"/>
	<circle style="fill:#A0C17C;" cx="167.943" cy="378.397" r="5.818"/>
	<circle style="fill:#A0C17C;" cx="202.421" cy="384.862" r="5.818"/>
	<circle style="fill:#A0C17C;" cx="237.33" cy="387.017" r="5.818"/>
</g>
<g>
	<circle style="fill:#51A448;" cx="273.963" cy="385.724" r="5.818"/>
	<circle style="fill:#51A448;" cx="308.441" cy="382.707" r="5.818"/>
	<circle style="fill:#51A448;" cx="343.781" cy="377.104" r="5.818"/>
	<circle style="fill:#51A448;" cx="377.397" cy="366.761" r="5.818"/>
</g>
</svg>