<?xml version="1.0" ?>
<!DOCTYPE svg  PUBLIC '-//W3C//DTD SVG 1.1//EN'  'http://www.w3.org/Graphics/SVG/1.1/DTD/svg11.dtd'>
<!-- Uploaded to: SVG Repo, www.svgrepo.com, Generator: SVG Repo Mixer Tools -->
<svg width="800px" height="800px" viewBox="0 0 512 512" enable-background="new 0 0 512 512" id="Layer_1" version="1.1" xml:space="preserve" xmlns="http://www.w3.org/2000/svg" xmlns:xlink="http://www.w3.org/1999/xlink">
<g>
<g>
<rect fill="#F47859" height="210.16" width="28.98" x="173.863" y="217.838"/>
<path d="M202.844,437.998h-28.98c-5.522,0-10-4.478-10-10v-210.16c0-5.522,4.478-10,10-10h28.98    c5.522,0,10,4.478,10,10v210.16C212.844,433.521,208.366,437.998,202.844,437.998z M183.863,417.998h8.98v-190.16h-8.98V417.998z" fill="#444B54"/>
</g>
<g>
<path d="M430.582,437.998h-29.037c-5.522,0-10-4.478-10-10v-210.16c0-5.522,4.478-10,10-10h29.037    c5.522,0,10,4.478,10,10v210.16C440.582,433.521,436.104,437.998,430.582,437.998z M411.545,417.998h9.037v-190.16h-9.037V417.998    z" fill="#444B54"/>
</g>
<g>
<path d="M453.045,227.838H153.477c-5.522,0-10-4.478-10-10v-29.935c0-5.522,4.478-10,10-10h299.568    c5.522,0,10,4.478,10,10v29.935C463.045,223.36,458.567,227.838,453.045,227.838z M163.477,207.838h279.568v-9.935H163.477    V207.838z" fill="#444B54"/>
</g>
<g>
<rect fill="#F47859" height="136.195" width="30.188" x="236.568" y="291.803"/>
<path d="M266.756,437.998h-30.188c-5.522,0-10-4.478-10-10V291.803c0-5.522,4.478-10,10-10h30.188    c5.522,0,10,4.478,10,10v136.195C276.756,433.521,272.278,437.998,266.756,437.998z M246.568,417.998h10.188V301.803h-10.188    V417.998z" fill="#444B54"/>
</g>
<g>
<rect fill="#F47859" height="136.195" width="30.188" x="58.955" y="291.803"/>
<path d="M89.143,437.998H58.955c-5.522,0-10-4.478-10-10V291.803c0-5.522,4.478-10,10-10h30.188    c5.522,0,10,4.478,10,10v136.195C99.143,433.521,94.665,437.998,89.143,437.998z M68.955,417.998h10.188V301.803H68.955V417.998z" fill="#444B54"/>
</g>
<g>
<path d="M173.863,301.803H58.955c-5.522,0-10-4.478-10-10V84.002c0-5.522,4.478-10,10-10h39.313    c5.522,0,10,4.478,10,10V242.49h65.596c5.522,0,10,4.478,10,10v39.313C183.863,297.325,179.386,301.803,173.863,301.803z     M68.955,281.803h94.908V262.49H98.268c-5.522,0-10-4.478-10-10V94.002H68.955V281.803z" fill="#444B54"/>
</g>
<g>
<path d="M266.756,301.803h-63.912c-5.522,0-10-4.478-10-10V252.49c0-5.522,4.478-10,10-10h63.912    c5.522,0,10,4.478,10,10v39.313C276.756,297.325,272.278,301.803,266.756,301.803z M212.844,281.803h43.912V262.49h-43.912    V281.803z" fill="#444B54"/>
</g>
<g>
<rect fill="#F47859" height="210.16" width="28.98" x="173.863" y="217.838"/>
<path d="M202.844,437.998h-28.98c-5.522,0-10-4.478-10-10v-210.16c0-5.522,4.478-10,10-10h28.98    c5.522,0,10,4.478,10,10v210.16C212.844,433.521,208.366,437.998,202.844,437.998z M183.863,417.998h8.98v-190.16h-8.98V417.998z" fill="#444B54"/>
</g>
<g>
<rect fill="#F47859" height="210.16" width="29.037" x="401.545" y="217.838"/>
<path d="M430.582,437.998h-29.037c-5.522,0-10-4.478-10-10v-210.16c0-5.522,4.478-10,10-10h29.037    c5.522,0,10,4.478,10,10v210.16C440.582,433.521,436.104,437.998,430.582,437.998z M411.545,417.998h9.037v-190.16h-9.037V417.998    z" fill="#444B54"/>
</g>
<g>
<rect fill="#FEEA98" height="29.935" width="299.568" x="153.477" y="187.903"/>
<path d="M453.045,227.838H153.477c-5.522,0-10-4.478-10-10v-29.935c0-5.522,4.478-10,10-10h299.568    c5.522,0,10,4.478,10,10v29.935C463.045,223.36,458.567,227.838,453.045,227.838z M163.477,207.838h279.568v-9.935H163.477    V207.838z" fill="#444B54"/>
</g>
<g>
<rect fill="#F47859" height="136.195" width="30.188" x="236.568" y="291.803"/>
<path d="M266.756,437.998h-30.188c-5.522,0-10-4.478-10-10V291.803c0-5.522,4.478-10,10-10h30.188    c5.522,0,10,4.478,10,10v136.195C276.756,433.521,272.278,437.998,266.756,437.998z M246.568,417.998h10.188V301.803h-10.188    V417.998z" fill="#444B54"/>
</g>
<g>
<rect fill="#F47859" height="136.195" width="30.188" x="58.955" y="291.803"/>
<path d="M89.143,437.998H58.955c-5.522,0-10-4.478-10-10V291.803c0-5.522,4.478-10,10-10h30.188    c5.522,0,10,4.478,10,10v136.195C99.143,433.521,94.665,437.998,89.143,437.998z M68.955,417.998h10.188V301.803H68.955V417.998z" fill="#444B54"/>
</g>
<g>
<polygon fill="#FEEA98" points="98.268,252.49 173.863,252.49 173.863,291.803 58.955,291.803 58.955,84.002 98.268,84.002   "/>
<path d="M173.863,301.803H58.955c-5.522,0-10-4.478-10-10V84.002c0-5.522,4.478-10,10-10h39.313    c5.522,0,10,4.478,10,10V242.49h65.596c5.522,0,10,4.478,10,10v39.313C183.863,297.325,179.386,301.803,173.863,301.803z     M68.955,281.803h94.908V262.49H98.268c-5.522,0-10-4.478-10-10V94.002H68.955V281.803z" fill="#444B54"/>
</g>
<g>
<rect fill="#FEEA98" height="39.313" width="63.912" x="202.844" y="252.49"/>
<path d="M266.756,301.803h-63.912c-5.522,0-10-4.478-10-10V252.49c0-5.522,4.478-10,10-10h63.912    c5.522,0,10,4.478,10,10v39.313C276.756,297.325,272.278,301.803,266.756,301.803z M212.844,281.803h43.912V262.49h-43.912    V281.803z" fill="#444B54"/>
</g>
</g>
</svg>